PathFileType	4	(X/Y/Z)	/home/mitkof6/dev/sinergia_osimrl/data/02761/02761_PRE/experimental_data/task.trc
DataRate	CameraRate	NumFrames	NumMarkers	Units	OrigDataRate	OrigDataStartFrame	OrigNumFrames
100.000000	100.000000	4	43	mm	100.000000	88	354
Frame#	Time	C7			CLAV			LANK			LASI			LBHD			LELB			LFHD			LFIN			LHEE			LKNE			LMED			LMET			LMIF			LPSI			LSHO			LTHI			LTIB			LTOE			LTTU			LWRA			LWRB			RANK			RASI			RBAK			RBHD			RELB			RFHD			RFIN			RHEE			RKNE			RMED			RMET			RMIF			RPSI			RSHO			RTHI			RTIB			RTOE			RTTU			RWRA			RWRB			STRN			T10			
		X1	Y1	Z1	X2	Y2	Z2	X3	Y3	Z3	X4	Y4	Z4	X5	Y5	Z5	X6	Y6	Z6	X7	Y7	Z7	X8	Y8	Z8	X9	Y9	Z9	X10	Y10	Z10	X11	Y11	Z11	X12	Y12	Z12	X13	Y13	Z13	X14	Y14	Z14	X15	Y15	Z15	X16	Y16	Z16	X17	Y17	Z17	X18	Y18	Z18	X19	Y19	Z19	X20	Y20	Z20	X21	Y21	Z21	X22	Y22	Z22	X23	Y23	Z23	X24	Y24	Z24	X25	Y25	Z25	X26	Y26	Z26	X27	Y27	Z27	X28	Y28	Z28	X29	Y29	Z29	X30	Y30	Z30	X31	Y31	Z31	X32	Y32	Z32	X33	Y33	Z33	X34	Y34	Z34	X35	Y35	Z35	X36	Y36	Z36	X37	Y37	Z37	X38	Y38	Z38	X39	Y39	Z39	X40	Y40	Z40	X41	Y41	Z41	X42	Y42	Z42	X43	Y43	Z43	

89	0.88	-637.6427001953125	1218.201171875	-286.4268493652341	-528.458251953125	1140.223876953125	-298.9064941406248	-541.4298706054688	70.47251129150401	-416.8968200683594	-602.0836181640625	814.6635131835939	-394.0650329589842	-618.5515747070312	1335.52294921875	-339.211730957031	-633.245849609375	942.1152343750001	-502.1350402832029	-488.9102783203125	1364.02490234375	-340.3938293457028	-535.275146484375	690.3765869140626	-596.8098754882811	-585.3909301757812	43.60645294189462	-373.2969360351562	-533.7974243164062	453.949432373047	-412.222442626953	-525.1072387695312	82.29042816162116	-342.8396606445312	-447.9161071777344	42.25278091430674	-432.9983215332031	-476.1714782714844	86.59462738037118	-386.2690734863281	-726.7498168945312	872.5809936523439	-329.4347534179686	-601.9559326171875	1194.6044921875	-423.759094238281	-597.2681884765625	574.2845458984376	-467.7059631347655	-554.2693481445312	261.9642028808595	-470.3172302246093	-425.2047424316406	62.52558517456064	-402.3229370117188	-476.72216796875	381.4004211425782	-363.1624450683593	-584.49609375	721.8009643554689	-562.3852539062499	-518.649658203125	744.3746948242189	-553.6645507812499	-814.1732177734375	86.60970306396489	-213.7389068603515	-589.2708740234375	821.0755004882812	-196.4444274902342	-664.5078125	1094.204711914062	-193.4656066894529	-636.844970703125	1307.834106445312	-233.0614776611325	-599.3483276367188	952.8819580078125	-83.65056610107401	-493.620849609375	1342.9169921875	-216.6502838134763	-392.8392639160156	807.8050537109375	-54.9469795227049	-856.1587524414062	76.18866729736334	-262.575927734375	-652.5780029296875	433.6043090820313	-191.5038452148437	-783.4678955078125	94.14019012451178	-284.1768493652344	-737.6310424804688	30.23328971862797	-184.3565826416016	-750.895751953125	89.90111541748053	-236.4611663818359	-721.6928100585938	881.06982421875	-244.2667846679686	-588.4002685546875	1200.239135742188	-169.4482727050779	-626.9483642578125	566.428955078125	-130.1741485595702	-748.1708374023438	242.6677398681641	-154.2057647705078	-708.1582641601562	42.58655548095708	-214.5483093261719	-637.2946166992188	350.0263061523438	-246.064483642578	-454.9525146484375	817.769775390625	-52.28511428832989	-425.7808837890625	847.645263671875	-100.0163421630858	-513.833984375	1002.010192871094	-307.8651733398435	-692.3351440429688	971.0512084960939	-297.6235046386716	
90	0.89	-628.3529663085938	1217.532470703125	-288.4094543457028	-519.2316284179688	1139.348999023438	-300.7489318847654	-514.9169311523438	68.69831085205088	-420.2123107910156	-591.979736328125	813.8493652343751	-394.7542114257811	-609.2109985351562	1334.727172851562	-341.1029357910153	-625.0897827148438	941.3036499023439	-503.2220458984373	-479.5755004882812	1363.184692382812	-342.3516540527341	-529.9336547851562	688.8683471679689	-598.7670898437499	-557.3896484375	39.22386932373055	-377.6074523925781	-525.4292602539062	452.6542053222657	-413.083770751953	-500.0672302246094	80.78691101074226	-345.6365661621094	-419.4512939453125	44.42372512817393	-434.7326049804688	-450.6494445800781	87.09127044677743	-387.9924011230469	-717.472412109375	871.9849853515626	-332.1440124511717	-592.5377807617188	1193.990478515625	-425.6867370605466	-589.2637329101562	572.5446777343751	-468.5502319335936	-535.3319091796875	259.7020874023439	-473.1080932617187	-397.9636535644531	65.40412139892587	-403.5591430664062	-467.7344360351562	381.5935058593751	-362.6631164550781	-578.3594970703125	720.5971069335939	-563.1432495117186	-512.0091552734375	743.2081909179689	-556.2780151367186	-813.9081420898438	87.08440399169926	-213.9281311035156	-581.4729614257812	820.6110229492188	-197.1292266845701	-655.4485473632812	1093.796752929688	-195.2147827148435	-627.4464721679688	1307.025512695312	-234.9490966796872	-589.0646362304688	952.9454956054688	-84.00444793701151	-484.2233581542969	1342.055908203125	-218.5911560058591	-381.4588317871094	809.6834716796875	-55.30010986328107	-855.9229736328125	76.98715972900396	-262.9135131835938	-649.3999633789062	433.1832580566407	-192.336456298828	-783.0708618164062	94.42521667480474	-284.4100646972656	-737.7239379882812	30.3271980285645	-184.4887237548828	-749.7134399414062	91.04254913330084	-236.1900787353515	-713.618896484375	880.6461181640625	-246.7745208740232	-579.0150756835938	1199.711303710938	-171.5661926269529	-622.8358154296875	565.8994750976562	-131.1786651611327	-746.6567993164062	242.9067840576172	-154.7423095703124	-708.1837158203125	42.60768127441411	-214.5779418945312	-634.78515625	349.3545837402344	-246.695816040039	-443.6445617675781	819.197509765625	-52.4265708923338	-414.78466796875	849.1148681640625	-100.3210525512693	-504.3821105957031	1001.088073730469	-309.1667480468748	-683.5435180664062	970.4230346679689	-299.8483886718748	
91	0.9	-619.1426391601562	1216.672973632812	-290.6017761230466	-510.03466796875	1138.297241210938	-302.6595458984373	-490.4039916992188	67.46884155273447	-422.6473999023438	-581.7134399414062	812.8076782226564	-395.3230895996092	-599.8777465820312	1333.784423828125	-343.1094665527341	-616.6710205078125	940.2603149414064	-504.458068847656	-470.232666015625	1362.152709960938	-344.3769226074216	-524.4115600585938	687.0328979492189	-600.6475830078124	-531.403564453125	35.83561706542977	-380.9255065917969	-516.9169921875	451.0861206054689	-414.2081298828124	-476.82861328125	79.77403259277351	-347.6651611328125	-393.3769226074219	46.52287292480479	-435.775146484375	-427.0492858886719	87.74647521972665	-389.1028747558594	-708.0300903320312	871.0621337890626	-334.9569396972655	-583.0087280273438	1193.152221679688	-427.7697143554685	-581.3063354492188	570.5053100585939	-469.5020751953124	-517.5059204101562	257.7592163085939	-475.3718872070312	-372.916748046875	68.13584899902352	-404.2511596679688	-458.5772399902344	381.5473022460938	-362.3662414550781	-571.92578125	719.0750122070314	-563.9218749999999	-505.5794372558594	741.6696166992189	-558.7846069335936	-813.6675415039062	87.56924438476567	-214.2552947998047	-573.5237426757812	819.9658813476562	-197.7214355468748	-646.5875854492188	1093.212646484375	-197.2384948730466	-618.0905151367188	1306.036499023438	-236.9701538085935	-578.9622192382812	952.7890625	-84.57348632812479	-474.859619140625	1340.963256835938	-220.620178222656	-370.3889465332031	811.2493896484375	-55.52222061157209	-855.6924438476562	77.78520965576178	-263.4153442382812	-646.0827026367188	432.6107177734376	-193.2711029052734	-782.6414794921875	94.66308593750006	-284.7680053710938	-737.8561401367188	30.43865013122563	-184.6813659667969	-748.5910034179688	92.09524536132818	-236.0474395751953	-705.399169921875	879.8446655273438	-249.3965148925779	-569.8550415039062	1198.995483398438	-173.8165130615232	-618.8597412109375	565.1893920898438	-132.2075958251952	-745.164306640625	243.1147613525391	-155.4281311035156	-708.2260131835938	42.63157653808599	-214.6478424072266	-632.0299072265625	348.5656433105469	-247.3640747070312	-432.657470703125	820.345458984375	-52.52668762207013	-404.0820922851562	850.1897583007812	-100.6231842041014	-494.7490844726562	1000.056762695313	-310.4066467285154	-674.6873779296875	969.5333862304689	-302.1361694335935	
92	0.91	-610.0204467773438	1215.630981445312	-293.0002746582028	-500.8748168945312	1137.09375	-304.6459655761716	-468.26171875	66.5703125000001	-424.1260375976562	-571.3531494140625	811.5760498046876	-395.835479736328	-590.5538330078125	1332.71484375	-345.2399597167966	-607.9863891601562	938.9834594726564	-505.8514709472654	-460.8835754394531	1360.939819335938	-346.4731445312497	-518.6685180664062	684.8808593750001	-602.4470214843749	-508.0024719238281	33.33229064941415	-383.1232604980469	-508.1205444335938	449.3194580078126	-415.5425415039061	-455.7405090332031	79.04753875732429	-348.8480834960938	-370.0684509277344	48.19664001464854	-436.103515625	-405.6788024902344	88.30553436279305	-389.5506286621094	-698.444091796875	869.7982177734376	-337.7874145507811	-573.4094848632812	1192.08984375	-430.0046691894528	-573.0885009765625	568.3427734375001	-470.6139221191405	-500.9231872558594	255.9806060791017	-477.0308227539062	-350.4031677246094	70.35962677001962	-404.3734436035156	-449.054443359375	381.3138427734376	-362.3037109374999	-565.1922607421875	717.2515869140626	-564.7315063476561	-499.2576293945312	739.7895507812501	-561.2057495117186	-813.454345703125	88.11404418945317	-214.7266082763672	-565.3624267578125	819.1148681640625	-198.2785491943358	-637.9078979492188	1092.460571289062	-199.5250396728513	-608.7858276367188	1304.889770507812	-239.1327972412107	-569.063232421875	952.4342041015625	-85.38443756103494	-465.5379943847656	1339.6484375	-222.741027832031	-359.6452941894531	812.5277709960938	-55.62493515014631	-855.4826049804688	78.62964630126959	-264.0695190429688	-642.591552734375	431.8875732421876	-194.3112182617187	-782.1714477539062	94.87731170654303	-285.2420349121094	-738.035888671875	30.56581497192387	-184.9323272705078	-747.6561279296875	92.93912506103521	-236.0850219726562	-696.9699096679688	878.6362915039062	-252.0740661621092	-560.9239501953125	1198.119140625	-176.2007141113279	-614.8563842773438	564.3037109375	-133.2888641357421	-743.6968994140625	243.3220367431641	-156.2630767822265	-708.283203125	42.66018295288091	-214.7518310546875	-629.046630859375	347.6499633789063	-248.0716247558593	-421.9974060058594	821.2473754882812	-52.59249496459942	-393.674072265625	850.8892211914062	-100.9361114501951	-485.0068969726562	998.9251098632814	-311.6198120117185	-665.7431640625	968.3871459960939	-304.4460449218748	
